<svg id="Layer_2" data-name="Layer 2" xmlns="http://www.w3.org/2000/svg" width="179.915" height="26.997" viewBox="0 0 179.915 26.997">
    <defs>
        <linearGradient id="linear-gradient" x1=".819" y1=".896" x2=".016" y2=".046" gradientUnits="objectBoundingBox">
            <stop offset="0" stop-color="#00478b"/>
            <stop offset=".7" stop-color="#0075c2"/>
        </linearGradient>
        <linearGradient id="linear-gradient-2" x1=".242" y1=".779" x2=".969" y2=".027" gradientUnits="objectBoundingBox">
            <stop offset="0" stop-color="#fdd000"/>
            <stop offset=".7" stop-color="#f08300"/>
        </linearGradient>
        <style>
            .cls-3{fill:#727171}
        </style>
    </defs>
    <g id="레이어_1" data-name="레이어 1">
        <path id="패스_899" data-name="패스 899" d="M16.936 1.841C10.5 4.433 7.691 9.283 7.691 14.553a6.129 6.129 0 0 0 6.161 6.307 6.159 6.159 0 0 0 3.083-11.491 6.107 6.107 0 0 1 3.079-.82A6.172 6.172 0 0 1 26.17 14.7a12.35 12.35 0 0 1-9.234 11.912 12.636 12.636 0 0 1-3.434.389C4.381 26.789-3.055 17.955 1.265.3 8.29-.535 13.858.578 16.936 1.841z" transform="translate(-.003 -.012)" style="fill:url(#linear-gradient)"/>
        <path id="패스_900" data-name="패스 900" d="M39.17.34V.308C32.592-.4 27.392.265 23.483 1.847c-6.431 2.592-9.245 7.441-9.245 12.712a6.129 6.129 0 0 0 6.162 6.307 6.421 6.421 0 0 0 3.051-.848 6.156 6.156 0 1 1 9.266-5.308 12.35 12.35 0 0 1-9.234 11.912 12.577 12.577 0 0 0 3.413.389C36.027 26.795 43.49 17.993 39.17.34z" transform="translate(-6.55 -.017)" style="fill:url(#linear-gradient-2)"/>
        <path id="사각형_33" data-name="사각형 33" class="cls-3" transform="translate(107.707 5.934)" d="M0 0h1.944v14.38H0z"/>
        <path id="패스_901" data-name="패스 901" class="cls-3" d="M186.36 11.781v-.491h-2.16v.491c0 3.6-.864 5.7-3.65 7.56v1.62a7.643 7.643 0 0 0 4.72-4.369 7.643 7.643 0 0 0 4.72 4.369v-1.62c-2.771-1.863-3.63-3.963-3.63-7.56z" transform="translate(-83.055 -5.2)"/>
        <path id="패스_902" data-name="패스 902" class="cls-3" d="M85.246 25.77H83.3v3.92h-5.56v1.539h13.068V29.69h-5.562z" transform="translate(-35.762 -11.861)"/>
        <path id="패스_903" data-name="패스 903" class="cls-3" d="M84.91 15.776a8.993 8.993 0 0 0 5.719 4.477v-1.62c-2.236-1.08-4.649-3.008-4.649-6.831v-.492h-2.16v.49c0 3.823-2.419 5.778-4.649 6.831v1.62a8.982 8.982 0 0 0 5.739-4.475z" transform="translate(-36.42 -5.209)"/>
        <path id="패스_904" data-name="패스 904" class="cls-3" d="M117.49 11h-1.944v8.64a3.866 3.866 0 0 0-2.414-.832 3.634 3.634 0 0 0-3.742 3.532 3.748 3.748 0 0 0 7.484 0 3.38 3.38 0 0 0-.886-2.273h1.5v-5.525h1.412V13h-1.393zm-4.358 13.241a1.9 1.9 0 1 1 1.809-1.9 1.863 1.863 0 0 1-1.809 1.9z" transform="translate(-50.321 -5.066)"/>
        <path id="패스_905" data-name="패스 905" class="cls-3" d="M111.884 18.762v-1.62c-2.128-.95-3.332-2.452-3.332-5.341v-.491h-2.16v.49c0 2.889-1.2 4.39-3.332 5.341v1.62a6.961 6.961 0 0 0 4.4-3.375 6.971 6.971 0 0 0 4.424 3.376z" transform="translate(-47.409 -5.209)"/>
        <path id="패스_906" data-name="패스 906" class="cls-3" d="M221.565 11h-1.944v8.64a3.883 3.883 0 0 0-2.419-.832 3.634 3.634 0 0 0-3.742 3.532 3.753 3.753 0 0 0 7.49 0 3.386 3.386 0 0 0-.891-2.273h1.507v-5.525h1.366V13h-1.388zM217.2 24.241a1.9 1.9 0 1 1 1.814-1.9 1.858 1.858 0 0 1-1.814 1.9z" transform="translate(-98.193 -5.066)"/>
        <path id="패스_907" data-name="패스 907" class="cls-3" d="M211.785 15.378a6.809 6.809 0 0 0 4.32 3.375v-1.62a4.909 4.909 0 0 1-3.2-4.293h2.77v-1.55h-7.781v1.539h2.77a4.909 4.909 0 0 1-3.2 4.32v1.62a6.809 6.809 0 0 0 4.325-3.391z" transform="translate(-95.433 -5.2)"/>
        <path id="패스_908" data-name="패스 908" class="cls-3" d="M137.78 25.487A3.634 3.634 0 0 0 134 29a3.748 3.748 0 0 0 7.484 0 3.634 3.634 0 0 0-3.704-3.513zm0 5.4a1.9 1.9 0 1 1 1.8-1.885 1.863 1.863 0 0 1-1.8 1.9z" transform="translate(-61.642 -11.729)"/>
        <path id="패스_909" data-name="패스 909" class="cls-3" d="M140.631 12.846a1.5 1.5 0 0 0-1.5-1.5h-9.007v1.539h8.537v4.12h-3.2V14.4h-1.931V17h-4.66v1.534h13.068v-1.525h-1.307z" transform="translate(-59.282 -5.227)"/>
        <path id="사각형_34" data-name="사각형 34" class="cls-3" transform="translate(93.748 5.934)" d="M0 0h1.944v10.422H0z"/>
        <path id="패스_910" data-name="패스 910" class="cls-3" d="M163.82 14.66a4.05 4.05 0 1 0-4.05 4.05 4.05 4.05 0 0 0 4.05-4.05zm-6.118 0a2.09 2.09 0 1 1 4.163 0 2.09 2.09 0 1 1-4.163 0z" transform="translate(-71.633 -4.887)"/>
        <path id="패스_911" data-name="패스 911" class="cls-3" d="M161.971 27.73H160v3.78a1.5 1.5 0 0 0 1.5 1.5h7.938v-1.55h-7.468z" transform="translate(-73.602 -12.762)"/>
        <path id="사각형_35" data-name="사각형 35" class="cls-3" transform="translate(135.641 5.934)" d="M0 0h1.944v10.422H0z"/>
        <path id="패스_912" data-name="패스 912" class="cls-3" d="M238.1 15.74a6.826 6.826 0 0 0 4.32 3.375v-1.62a4.988 4.988 0 0 1-3.24-4.655h2.813v-1.55H234.2v1.539h2.8a4.958 4.958 0 0 1-3.24 4.655V19.1a6.826 6.826 0 0 0 4.34-3.36z" transform="translate(-107.531 -5.2)"/>
        <path id="패스_913" data-name="패스 913" class="cls-3" d="M239.254 27.73h-1.944v3.78a1.5 1.5 0 0 0 1.5 1.5h8.1v-1.55h-7.652z" transform="translate(-109.164 -12.762)"/>
        <path id="사각형_36" data-name="사각형 36" class="cls-3" transform="translate(139.486 12.916)" d="M0 0h13.181v1.458H0z"/>
        <path id="패스_914" data-name="패스 914" class="cls-3" d="M271.289 11.08h-4.244V10h-2.16v1.08h-4.245v1.458h1.949a2.64 2.64 0 0 0-.454 1.474c0 1.723 1.706 3.121 3.818 3.121s3.818-1.4 3.818-3.121a2.7 2.7 0 0 0-.454-1.474h1.949zm-5.314 4.42a1.725 1.725 0 0 1-1.89-1.48 1.725 1.725 0 0 1 1.89-1.48 1.7 1.7 0 0 1 1.879 1.46 1.714 1.714 0 0 1-1.879 1.48z" transform="translate(-119.896 -4.606)"/>
        <path id="패스_915" data-name="패스 915" class="cls-3" d="M267.116 27.38c-2.209 0-4 1.345-4 3s1.787 3 4 3 4-1.345 4-3-1.791-3-4-3zm0 4.39c-1.08 0-1.976-.621-1.976-1.388s.88-1.393 1.976-1.393 1.976.626 1.976 1.393-.885 1.388-1.976 1.388z" transform="translate(-121.037 -12.601)"/>
        <path id="패스_916" data-name="패스 916" class="cls-3" d="M321.6 13v-2h-1.96v6.48h-6.674v-4.752h5.054v-1.539H311v6.35a1.49 1.49 0 0 0 1.5 1.5h7.144v2.221h1.949v-6.718h1.388V13z" transform="translate(-143.062 -5.066)"/>
        <path id="패스_917" data-name="패스 917" class="cls-3" d="M315.4 27.73h-1.94v3.78a1.5 1.5 0 0 0 1.5 1.5h7.938v-1.55H315.4z" transform="translate(-144.193 -12.762)"/>
        <path id="패스_918" data-name="패스 918" class="cls-3" d="M292.962 25.489A3.634 3.634 0 0 0 289.22 29a3.748 3.748 0 0 0 7.484 0 3.634 3.634 0 0 0-3.742-3.511zm0 5.4A1.9 1.9 0 1 1 294.777 29a1.858 1.858 0 0 1-1.814 1.9z" transform="translate(-133.043 -11.73)"/>
        <path id="패스_919" data-name="패스 919" class="cls-3" d="M295.788 12.846a1.5 1.5 0 0 0-1.5-1.5h-9.008v1.539h8.564v4.12H290.6V14.4h-1.94V17H284v1.534h13.068v-1.525h-1.307z" transform="translate(-130.642 -5.227)"/>
    </g>
</svg>
